<svg width="24" height="24" viewBox="0 0 24 24" fill="none" xmlns="http://www.w3.org/2000/svg">
<path fill-rule="evenodd" clip-rule="evenodd" d="M22.2999 12.3918C22.4178 12.1438 22.4178 11.8561 22.2999 11.6081C20.469 7.75996 16.545 5.09998 11.9998 5.09998C7.45462 5.09998 3.53068 7.75996 1.6998 11.6081C1.58184 11.8561 1.58184 12.1438 1.6998 12.3918C3.53068 16.2399 7.45462 18.8999 11.9998 18.8999C16.545 18.8999 20.469 16.2399 22.2999 12.3918ZM9.89982 12C9.89982 10.8402 10.84 9.9 11.9998 9.9C13.1596 9.9 14.0998 10.8402 14.0998 12C14.0998 13.1598 13.1596 14.1 11.9998 14.1C10.84 14.1 9.89982 13.1598 9.89982 12ZM11.9998 8.1C9.84591 8.1 8.09983 9.84609 8.09983 12C8.09983 14.1539 9.84591 15.9 11.9998 15.9C14.1537 15.9 15.8998 14.1539 15.8998 12C15.8998 9.84609 14.1537 8.1 11.9998 8.1Z" fill="#E3E3E3"/>
</svg>
