<svg width="48" height="48" viewBox="0 0 48 48" fill="none" xmlns="http://www.w3.org/2000/svg">
<rect x="1" y="1" width="46" height="46" rx="23" fill="#9E9E9E"/>
<rect x="1" y="1" width="46" height="46" rx="23" stroke="#212121" stroke-width="2"/>
<path d="M19.9997 14H27.1997L29.0472 17.2H33.599C34.399 17.2 34.399 18 34.399 20.4V31.6C34.399 33.2 32.799 33.2 30.399 33.2H15.199C12.799 33.2 11.999 32.1333 11.999 31.6V20.4C11.999 17.2 12.799 17.2 13.599 17.2H18.1521L19.9997 14Z" fill="white"/>
<path d="M15.199 33.2C12.799 33.2 11.999 32.1333 11.999 31.6V20.4C11.999 17.2 12.799 17.2 13.599 17.2H18.1521L19.9997 14H27.1997L29.0472 17.2H33.599C34.399 17.2 34.399 18 34.399 20.4V31.6C34.399 33.2 32.799 33.2 30.399 33.2M15.199 33.2C18.6657 33.2 26.559 33.2 30.399 33.2M15.199 33.2H30.399" stroke="white" stroke-width="1.6"/>
<circle cx="23.1996" cy="24.4008" r="4.8" fill="#4CAF50" stroke="#9E9E9E" stroke-width="1.6"/>
<circle cx="23.1992" cy="24.4004" r="4" fill="white"/>
</svg>
