<svg width="15" height="17" viewBox="0 0 15 17" fill="none" xmlns="http://www.w3.org/2000/svg">
<path d="M14.2297 12.15C13.8416 13.012 13.6546 13.3973 13.1554 14.1581C12.4565 15.2213 11.4707 16.5488 10.2529 16.5572C9.16866 16.567 8.88881 15.8498 7.41647 15.8625C5.94553 15.8695 5.63897 16.5712 4.55334 16.56C3.33412 16.5487 2.40178 15.3534 1.70287 14.2917C-0.251814 11.3147 -0.458533 7.82438 0.749436 5.96813C1.60444 4.65188 2.95584 3.87844 4.22569 3.87844C5.51944 3.87844 6.33225 4.5886 7.401 4.5886C8.43881 4.5886 9.07022 3.87703 10.5665 3.87703C11.6971 3.87703 12.8924 4.49297 13.7474 5.5561C10.9518 7.08891 11.406 11.0812 14.2297 12.15ZM9.43022 2.68875C9.97444 1.98984 10.3879 1.00406 10.2374 0C9.35006 0.0604692 8.31225 0.627188 7.70616 1.36125C7.15631 2.03063 6.70069 3.02344 6.87787 3.98391C7.84678 4.01485 8.84944 3.43688 9.43022 2.68875Z" fill="white"/>
</svg>
